<?xml version="1.0" standalone="no"?>
<svg viewBox="0 0 200 200" xmlns="http://www.w3.org/2000/svg">
  <path fill="#AC41FF" d="M37.8,-61.9C50.3,-58.3,62.7,-50.8,64.7,-39.8C66.8,-28.9,58.5,-14.4,58.5,0C58.6,14.5,67,29,66.7,43C66.4,57,57.5,70.5,44.9,75.8C32.3,81,16.2,78.1,2.5,73.8C-11.2,69.5,-22.4,63.8,-36.5,59.4C-50.6,55,-67.6,51.9,-75.8,42.2C-84,32.6,-83.4,16.3,-75.3,4.6C-67.3,-7,-51.9,-14,-44.1,-24.4C-36.3,-34.7,-36.1,-48.4,-30,-55.8C-23.9,-63.1,-12,-64.1,0.4,-64.7C12.7,-65.4,25.3,-65.6,37.8,-61.9Z" transform="translate(100 100)" />
</svg>
