<?xml version="1.0" standalone="no"?>
<svg viewBox="0 0 200 200" xmlns="http://www.w3.org/2000/svg">
  <path fill="#AC41FF" d="M29.1,-50.2C41.8,-43.2,58.7,-43.4,66.3,-36.3C73.9,-29.1,72.1,-14.6,72.3,0.1C72.5,14.8,74.6,29.5,66.2,35.3C57.9,41.2,39,38,26.2,46.1C13.4,54.2,6.7,73.6,-2.1,77.2C-11,80.9,-21.9,69,-33.2,60C-44.4,51,-55.8,44.9,-58.5,35.4C-61.2,25.9,-55.2,12.9,-53.1,1.2C-51,-10.5,-52.9,-21.1,-50.6,-31.3C-48.3,-41.4,-41.8,-51.3,-32.7,-60.3C-23.5,-69.3,-11.8,-77.4,-1.8,-74.4C8.3,-71.3,16.5,-57.2,29.1,-50.2Z" transform="translate(100 100)" />
</svg>
